<svg width="100" height="38" fill="none" xmlns="http://www.w3.org/2000/svg"><path d="M14.063 24.184a6.642 6.642 0 00-6.58 6.704c.004.284.03.561.067.834a6.636 6.636 0 006.639 5.744 6.636 6.636 0 006.556-6.138c.014-.186.026-.375.024-.567a6.642 6.642 0 00-6.706-6.576zm-.552 2.528l.018 1.91a2.27 2.27 0 00-.585.253l-1.366-1.34a4.126 4.126 0 011.933-.823zm-2.737 1.643l1.369 1.342c-.105.185-.186.38-.236.586l-1.909.02a4.134 4.134 0 01.776-1.948zm-.772 3.095l1.923-.019c.057.206.138.4.246.575l-1.344 1.37a4.142 4.142 0 01-.825-1.926zm1.653 2.729l1.338-1.366c.179.103.376.179.58.23l.018 1.914a4.13 4.13 0 01-1.936-.778zm6.589-3.954l-1.91.019c-.055-.209-.14-.4-.247-.583l1.343-1.366a4.12 4.12 0 01.814 1.93zM14.66 26.7a4.141 4.141 0 011.948.785l-1.34 1.366a2.284 2.284 0 00-.59-.24l-.018-1.91zm.079 8.247l-.019-1.914a2.36 2.36 0 00.575-.241l1.364 1.34a4.13 4.13 0 01-1.92.815zm2.736-1.629l-1.375-1.35c.104-.178.19-.37.242-.576l1.909-.02a4.148 4.148 0 01-.776 1.947zm60.869-9.134a6.64 6.64 0 00-6.578 6.704c.002.284.028.561.066.834a6.636 6.636 0 006.638 5.744 6.636 6.636 0 006.557-6.138c.014-.186.025-.375.023-.567a6.643 6.643 0 00-6.706-6.576zm-.55 2.528l.017 1.91a2.262 2.262 0 00-.584.253l-1.366-1.34a4.113 4.113 0 011.932-.823zm-2.739 1.643l1.368 1.342c-.105.185-.185.38-.235.586l-1.91.02a4.156 4.156 0 01.777-1.948zm-.771 3.095l1.922-.019c.058.206.139.4.246.575l-1.344 1.37a4.141 4.141 0 01-.824-1.926zm1.652 2.729l1.338-1.366c.18.103.376.179.579.23l.018 1.914a4.139 4.139 0 01-1.935-.778zm6.589-3.954l-1.91.019a2.31 2.31 0 00-.247-.583l1.343-1.366a4.1 4.1 0 01.814 1.93zM78.943 26.7a4.146 4.146 0 011.949.785l-1.34 1.366a2.29 2.29 0 00-.59-.24l-.019-1.91zm.079 8.247l-.018-1.914c.204-.058.397-.135.575-.241l1.363 1.34c-.55.421-1.202.71-1.92.815zm2.735-1.629l-1.374-1.35c.104-.178.19-.37.242-.576l1.908-.02a4.138 4.138 0 01-.776 1.947z" fill="#3052A8"/><path d="M99.2 26.669l-2.293-1.006s1.998-11.883-3.302-22.621a1.829 1.829 0 00-1.12-.945C84.963-.123 41.2.133 30.665 1.967a5.462 5.462 0 00-2.491 1.13c-3.034 2.452-10.86 9.299-10.86 9.299s-8.936 1.578-11.907 2.143c-2.59.492-3.81 1.853-3.798 3.672l.042 6.449-.987.297a.93.93 0 00-.664.894v2.694s.303 1.567 1.652 2.543c.198.144 1.787.242 4.345.313-.013-.163-.036-.324-.038-.492-.043-4.503 3.586-8.202 8.088-8.246 4.542 0 8.206 3.629 8.247 8.09.002.233-.027.694-.027.694l47.992-.312s-.017-.148-.018-.228c-.043-4.503 3.586-8.202 8.09-8.246 4.54 0 8.204 3.629 8.245 8.09.003.211-.023.628-.023.628l6.376-1.053v1.197c0 .273.223.496.497.496h1.123a.497.497 0 00.496-.496v-1.282h3.62c.737 0 1.335-.6 1.335-1.337v-1.007a1.342 1.342 0 00-.8-1.228zM37.98 12.853a.591.591 0 01-.59.555H26.37s.011-2.935-.048-3.67c-.094-1.155-.572-1.594-.572-1.594l4.042-3.72a2.684 2.684 0 011.76-.708l6.37-.133a.597.597 0 01.604.63l-.546 8.64z" fill="#3052A8"/></svg>