<svg width="100" height="48" fill="none" xmlns="http://www.w3.org/2000/svg"><path d="M15.217 26.234c-5.886 0-10.66 4.772-10.66 10.66 0 .455.038.899.095 1.34.662 5.253 5.133 9.318 10.565 9.318 5.577 0 10.15-4.29 10.613-9.75.024-.3.045-.602.045-.908 0-5.888-4.771-10.66-10.658-10.66zm-4.008 7.641l1.632 1.633a2.691 2.691 0 00-.29.703h-2.3a4.96 4.96 0 01.958-2.336zM10.24 37.6h2.32c.064.247.161.48.29.694l-1.637 1.636a5.029 5.029 0 01-.973-2.33zm4.284 4.265a4.979 4.979 0 01-2.322-.965l1.626-1.626c.215.127.45.217.696.28v2.311zm0-7.634a2.682 2.682 0 00-.707.295l-1.63-1.632a4.981 4.981 0 012.338-.967v2.304zm1.387-2.303a4.967 4.967 0 012.338.968l-1.631 1.631a2.672 2.672 0 00-.707-.295v-2.304zm0 9.935v-2.31c.246-.062.48-.155.694-.28l1.627 1.626a4.982 4.982 0 01-2.32.964zm3.313-1.929l-1.64-1.642c.129-.216.232-.444.297-.693h2.301a5.003 5.003 0 01-.958 2.335zm-1.34-3.72a2.747 2.747 0 00-.29-.704l1.633-1.633a4.99 4.99 0 01.958 2.336h-2.3zm63.141-9.98c-5.884 0-10.659 4.772-10.659 10.66 0 .455.038.899.096 1.34.661 5.253 5.132 9.318 10.563 9.318 5.578 0 10.153-4.29 10.614-9.75.023-.3.046-.602.046-.908 0-5.888-4.772-10.66-10.66-10.66zm-4.007 7.641l1.633 1.633a2.696 2.696 0 00-.292.703H76.06a4.96 4.96 0 01.958-2.336zM76.05 37.6h2.32c.062.247.16.48.289.694l-1.637 1.636a5.026 5.026 0 01-.972-2.33zm4.283 4.265a4.983 4.983 0 01-2.322-.965l1.627-1.626c.214.127.448.217.694.28v2.311h.001zm0-7.634a2.69 2.69 0 00-.706.295l-1.63-1.632a4.982 4.982 0 012.336-.967v2.304zm1.388-2.303a4.96 4.96 0 012.336.968l-1.629 1.631a2.723 2.723 0 00-.707-.295v-2.304zm0 9.935v-2.31a2.68 2.68 0 00.694-.28l1.628 1.626a4.99 4.99 0 01-2.322.964zm3.313-1.929l-1.642-1.642c.13-.216.232-.444.3-.693h2.299a4.98 4.98 0 01-.957 2.335zm-1.34-3.72a2.747 2.747 0 00-.29-.704l1.634-1.633c.505.67.838 1.466.956 2.336h-2.3zM76.612.43L48.017.79a1.552 1.552 0 000 3.105h.039l28.596-.36a1.553 1.553 0 001.534-1.573c-.013-.858-.74-1.565-1.574-1.533zm-11.31 36.172H31.54a1.552 1.552 0 000 3.106h33.762a1.552 1.552 0 000-3.106z" fill="#3052A8"/><path d="M99.566 27.74a1.904 1.904 0 00-1.471-.695h-1.766L94.536 7.408a2.082 2.082 0 00-2.105-1.893l-50.488.757a2.592 2.592 0 00-2.007 1l-6.692 8.602-21.914 1.357a3.859 3.859 0 00-2.953 1.684L7.143 20.73s-2.113.744-2.68 1.212c-.49.407-1.469 2.088-1.469 2.088a.859.859 0 00.705 1.357V27.3H1.875A1.876 1.876 0 000 29.175v3.456a2.326 2.326 0 002.326 2.326h1.247l3.212-8.863a2.04 2.04 0 011.917-1.345h11.213c.635 0 1.236.297 1.621.803l7.553 9.915h39.424l5.532-9.335c.367-.62 1.033-1 1.754-1h10.295c.727 0 1.398.387 1.764 1.015l5.425 9.32h1.945a4.285 4.285 0 004.204-3.456l.529-2.69a1.891 1.891 0 00-.395-1.582zm-48.028-9.883H39.904v-3.573h-2.357l3.527-4.656c.151-.2.387-.32.638-.324l11.802-.176v5.155l-1.976 3.574zm19.239 0H58.23v-8.8l15.131-.224v6.438l-2.585 2.586zm6.466 0V8.774l13.025-.194a.419.419 0 01.423.389l.612 8.888h-14.06z" fill="#3052A8"/></svg>