<svg width="100" height="32" fill="none" xmlns="http://www.w3.org/2000/svg"><path d="M17.107 15.992a7.505 7.505 0 00-7.506 7.505c0 .321.026.635.066.944.465 3.7 3.615 6.562 7.44 6.562 3.93 0 7.15-3.02 7.475-6.866.02-.212.032-.424.032-.642a7.504 7.504 0 00-7.507-7.503zm-3.76 4.678l1.531 1.53c-.12.205-.212.426-.273.66h-2.158a4.7 4.7 0 01.9-2.19zm-.906 3.491h2.174c.062.23.15.45.271.65l-1.533 1.534a4.695 4.695 0 01-.912-2.183zm4.017 4a4.665 4.665 0 01-2.177-.901l1.526-1.528c.2.117.42.202.651.264v2.165zm0-7.159a2.605 2.605 0 00-.664.276l-1.53-1.53a4.664 4.664 0 012.194-.907v2.161zm1.299-2.161a4.68 4.68 0 012.194.907l-1.53 1.53a2.549 2.549 0 00-.664-.276v-2.161zm0 9.32v-2.165c.23-.062.45-.147.65-.266l1.529 1.53a4.679 4.679 0 01-2.179.9zm3.11-1.81l-1.54-1.54c.12-.2.219-.417.28-.65h2.158a4.688 4.688 0 01-.898 2.19zm-1.259-3.49a2.603 2.603 0 00-.272-.66l1.531-1.53a4.68 4.68 0 01.9 2.192l-2.159-.002zM79.1 16.057a7.473 7.473 0 00-7.474 7.475c0 .319.025.63.064.94.463 3.682 3.6 6.534 7.41 6.534a7.47 7.47 0 007.441-6.837c.02-.21.032-.422.032-.637a7.47 7.47 0 00-7.473-7.475zm-3.743 4.658l1.525 1.526a2.584 2.584 0 00-.271.657h-2.15a4.646 4.646 0 01.896-2.183zm-.903 3.477h2.164c.062.23.15.446.27.648l-1.528 1.53a4.719 4.719 0 01-.906-2.178zm4 3.983a4.647 4.647 0 01-2.167-.901l1.52-1.52c.198.116.419.202.648.262v2.16zm0-7.13a2.574 2.574 0 00-.66.274l-1.523-1.523a4.667 4.667 0 012.183-.903v2.152zm1.294-2.152c.817.114 1.559.43 2.184.904l-1.523 1.522a2.513 2.513 0 00-.66-.274v-2.152zm0 9.281v-2.158c.23-.06.449-.147.65-.264l1.52 1.522a4.67 4.67 0 01-2.17.9zm3.096-1.802l-1.532-1.533c.118-.2.217-.415.278-.647h2.147a4.671 4.671 0 01-.893 2.18zm-1.252-3.475a2.517 2.517 0 00-.272-.657l1.525-1.526a4.65 4.65 0 01.895 2.183h-2.148z" fill="#3052A8"/><path d="M99.97 18.314a5.218 5.218 0 00-.888-2.776l-.404-.604-1.768-4.663a2.45 2.45 0 00-2.083-1.572c-1.739-.147-4.692-.37-7.511-.474C77.46 2.992 59.238-2.27 43.785 3.465c-3.17 1.176-12.23 5.78-12.23 5.78s-14.71-.373-25.203 3.37A9.56 9.56 0 00.047 22.56c.088.874.217 1.652.343 2.28.2.993 1.02 1.741 2.028 1.853l6.527.716a8.988 8.988 0 01-.823-2.773 8.805 8.805 0 01-.078-1.139c0-4.997 4.066-9.064 9.064-9.064 4.999 0 9.066 4.067 9.066 9.064 0 .262-.017.518-.038.773a8.926 8.926 0 01-.874 3.155h45.325l.368-.021a8.96 8.96 0 01-.81-2.737 8.802 8.802 0 01-.077-1.134c0-4.981 4.051-9.034 9.033-9.034 4.982 0 9.034 4.05 9.034 9.034 0 .26-.017.514-.038.768a8.847 8.847 0 01-.456 2.123l1.019-.06 7.022-.93a3.971 3.971 0 002.916-1.948l.7-1.206a5.227 5.227 0 00.699-2.752l-.027-1.214zM75.094 9.326H40.721s.204-.814-.695-1.797c0 0 8.788-5.668 22.359-4.253 3.734.39 8.297.655 14.51 3.884l-1.8 2.166z" fill="#3052A8"/></svg>