<svg width="50" height="50" fill="none" xmlns="http://www.w3.org/2000/svg"><circle cx="25" cy="25" r="25" fill="#A83040"/><path d="M36.981 17.386c0-.03.02-.057.019-.085l-7.63 7.351 7.62 7.116c.005-.05-.009-.102-.009-.154V17.385zm-8.775 8.398l-3.114 2.996a.812.812 0 01-1.12.01l-3.106-2.895-7.67 7.393c.186.067.386.119.596.119h21.47c.311 0 .603-.095.857-.237l-7.913-7.386z" fill="#fff"/><path d="M24.518 27.071l11.643-11.216a1.765 1.765 0 00-.9-.261H13.793c-.428 0-.82.166-1.126.42L24.518 27.07zM12 17.659v13.955c0 .16.037.315.077.462l7.574-7.294L12 17.66z" fill="#fff"/></svg>