<svg width="25" height="26" fill="none" xmlns="http://www.w3.org/2000/svg"><g clip-path="url(#clip0)" fill="#fff" fill-opacity=".7"><path d="M21.338.99H3.662A3.666 3.666 0 000 4.652v17.676a3.666 3.666 0 003.662 3.662h17.676A3.666 3.666 0 0025 22.328V4.652A3.666 3.666 0 0021.338.99zm-8.79 19.043a6.6 6.6 0 01-6.591-6.592 6.6 6.6 0 016.592-6.591 6.6 6.6 0 016.592 6.591 6.6 6.6 0 01-6.592 6.592zm7.325-11.719a2.2 2.2 0 01-2.197-2.197 2.2 2.2 0 012.197-2.197 2.2 2.2 0 012.197 2.197 2.2 2.2 0 01-2.197 2.197z"/><path d="M19.873 5.385a.733.733 0 10.001 1.466.733.733 0 00-.001-1.466zm-7.324 2.929a5.133 5.133 0 00-5.127 5.127c0 2.827 2.3 5.127 5.127 5.127s5.127-2.3 5.127-5.127c0-2.826-2.3-5.127-5.127-5.127z"/></g><defs><clipPath id="clip0"><path fill="#fff" transform="translate(0 .99)" d="M0 0h25v25H0z"/></clipPath></defs></svg>