<svg width="25" height="25" fill="none" xmlns="http://www.w3.org/2000/svg"><g clip-path="url(#clip0)" fill="#000"><path d="M21.338 0H3.662A3.666 3.666 0 000 3.662v17.676A3.666 3.666 0 003.662 25h17.676A3.666 3.666 0 0025 21.338V3.662A3.666 3.666 0 0021.338 0zm-8.79 19.043a6.6 6.6 0 01-6.591-6.592 6.6 6.6 0 016.592-6.592 6.6 6.6 0 016.592 6.592 6.6 6.6 0 01-6.592 6.592zm7.325-11.719a2.2 2.2 0 01-2.197-2.197 2.2 2.2 0 012.197-2.197 2.2 2.2 0 012.197 2.197 2.2 2.2 0 01-2.197 2.197z"/><path d="M19.873 4.395a.733.733 0 10.001 1.465.733.733 0 00-.001-1.465zm-7.324 2.929a5.133 5.133 0 00-5.127 5.127c0 2.827 2.3 5.127 5.127 5.127s5.127-2.3 5.127-5.127-2.3-5.127-5.127-5.127z"/></g><defs><clipPath id="clip0"><path fill="#fff" d="M0 0h25v25H0z"/></clipPath></defs></svg>