<svg width="25" height="26" fill="none" xmlns="http://www.w3.org/2000/svg"><g clip-path="url(#clip0)"><path d="M22.994 17.4c-1.53 0-3.034-.24-4.458-.71-.698-.239-1.555-.02-1.981.417l-2.811 2.122c-3.26-1.74-5.268-3.747-6.985-6.983l2.06-2.738a2.02 2.02 0 00.497-2.047 14.216 14.216 0 01-.713-4.465c0-1.106-.9-2.006-2.006-2.006H2.006C.9.99 0 1.89 0 2.996 0 15.675 10.315 25.99 22.994 25.99c1.106 0 2.006-.9 2.006-2.006v-4.579c0-1.106-.9-2.006-2.006-2.006z" fill="#F6F6F6"/></g><defs><clipPath id="clip0"><path fill="#fff" transform="translate(0 .99)" d="M0 0h25v25H0z"/></clipPath></defs></svg>